<svg viewBox="0 0 32 32" fill="none" xmlns="http://www.w3.org/2000/svg">
  <path d="M17.6001 9.59999H22.4001V14.4" stroke="#141414" stroke-miterlimit="10" stroke-linecap="round" stroke-linejoin="round"/>
  <path d="M15.1841 16.816L22.4001 9.59999" stroke="#141414" stroke-miterlimit="10" stroke-linecap="round" stroke-linejoin="round"/>
  <path d="M20.8001 16.8C20.8001 19.896 18.2961 22.4 15.2001 22.4C12.1041 22.4 9.6001 19.896 9.6001 16.8C9.6001 13.704 12.1041 11.2 15.2001 11.2" stroke="#141414" stroke-miterlimit="10" stroke-linecap="round" stroke-linejoin="round"/>
  <g opacity="0.3">
    <path
      opacity="0.3"
      d="M16 0.8C24.384 0.8 31.2 7.616 31.2 16C31.2 24.384 24.384 31.2 16 31.2C7.616 31.2 0.8 24.384 0.8 16C0.8 7.616 7.616 0.8 16 0.8ZM16 0C7.16 0 0 7.16 0 16C0 24.84 7.16 32 16 32C24.84 32 32 24.84 32 16C32 7.16 24.84 0 16 0Z"
      fill="#141414"/>
  </g>
</svg>
