<svg width="1824" height="229" viewBox="0 0 1824 229" fill="none" xmlns="http://www.w3.org/2000/svg">
<path d="M284.115 228.746C271.337 228.746 259.771 226.983 249.417 223.457C239.283 219.711 230.581 214.091 223.311 206.599C216.041 198.886 210.423 189.299 206.458 177.84C202.712 166.381 200.84 152.718 200.84 136.851V2.97502H225.955V137.181C225.955 160.541 230.911 177.84 240.825 189.079C250.959 200.098 265.389 205.607 284.115 205.607C302.841 205.607 317.16 200.098 327.074 189.079C337.208 177.84 342.275 160.541 342.275 137.181V2.97502H367.39V136.851C367.39 152.718 365.407 166.381 361.442 177.84C357.696 189.299 352.189 198.886 344.919 206.599C337.649 214.091 328.837 219.711 318.482 223.457C308.348 226.983 296.892 228.746 284.115 228.746Z" fill="#F9F9F9"/>
<path d="M547.509 22.4779C522.174 22.4779 502.347 30.4113 488.027 46.2781C473.928 62.1448 466.878 84.8431 466.878 114.373C466.878 143.462 473.928 166.05 488.027 182.137C502.126 198.004 521.844 205.937 547.179 205.937C565.244 205.937 581.546 202.411 596.086 195.36L602.365 216.515C594.434 220.482 585.952 223.567 576.92 225.771C568.108 227.754 558.084 228.746 546.848 228.746C528.783 228.746 513.142 225.991 499.923 220.482C486.926 214.973 476.131 207.26 467.539 197.343C458.947 187.426 452.558 175.416 448.372 161.312C444.186 147.208 442.094 131.562 442.094 114.373C442.094 97.6247 444.407 82.1987 449.033 68.0949C453.66 53.9911 460.379 41.9808 469.191 32.0641C478.223 21.927 489.239 14.1038 502.237 8.59451C515.235 2.86484 530.215 0 547.179 0C558.634 0 568.548 0.991677 576.92 2.97502C585.291 4.738 593.112 7.27228 600.382 10.5779L594.104 31.7335C580.665 25.5631 565.133 22.4779 547.509 22.4779Z" fill="#F9F9F9"/>
<path d="M742.582 107.101L842.049 225.771H811.317L717.797 114.042V101.812L808.673 2.97502H838.414L742.582 107.101ZM700.614 225.771H675.499V2.97502H700.614V225.771Z" fill="#F9F9F9"/>
<path d="M984.362 131.562V225.771H959.247V131.562L884.234 2.97502H910.67L971.474 110.076H972.135L1032.61 2.97502H1059.38L984.362 131.562Z" fill="#F9F9F9"/>
<path d="M1270.03 71.731C1270.03 81.8681 1268.27 91.2339 1264.75 99.8284C1261.22 108.203 1256.15 115.585 1249.55 121.976C1243.16 128.146 1235.34 132.994 1226.08 136.52C1216.83 140.046 1206.48 141.809 1195.02 141.809H1150.41V225.771H1125.29V2.97502H1197C1208.46 2.97502 1218.7 4.738 1227.74 8.26394C1236.99 11.7899 1244.7 16.6381 1250.87 22.8085C1257.04 28.9789 1261.77 36.2512 1265.08 44.6253C1268.38 52.9994 1270.03 62.0346 1270.03 71.731ZM1244.92 71.731C1244.92 57.6272 1240.84 46.4985 1232.69 38.3447C1224.54 30.1909 1212.64 26.1141 1197 26.1141H1150.41V118.67H1195.02C1210.66 118.67 1222.89 114.483 1231.7 106.109C1240.51 97.7349 1244.92 86.2756 1244.92 71.731Z" fill="#F9F9F9"/>
<path d="M1369.03 225.771H1343.91V2.97504H1369.03V225.771Z" fill="#F9F9F9"/>
<path d="M1524.06 107.101L1623.53 225.771H1592.79L1499.27 114.042V101.812L1590.15 2.97504H1619.89L1524.06 107.101ZM1482.09 225.771H1456.98V2.97504H1482.09V225.771Z" fill="#F9F9F9"/>
<path d="M1687.52 2.97504H1822.02V25.7835H1712.64V99.1673H1815.41V122.306H1712.64V202.962H1824V225.771H1687.52V2.97504Z" fill="#F9F9F9"/>
<path d="M0 2.97504H25.1147V202.632H131.522V225.771H0V2.97504Z" fill="#F9F9F9"/>
</svg>
