<svg viewBox="0 0 88 24" fill="none">
  <rect fill="white"/>
  <path d="M0 0H2.99953V20.9986H14.9995V23.9981H0V0Z" fill="black"/>
  <path d="M51.2254 24H47.998V0H51.2254V24ZM55.9886 11.1476L66.8989 23.9981H63.0583L53.3782 12.5411C53.0707 12.0759 52.9169 11.7665 52.9169 11.3033C52.9169 10.8382 53.0707 10.3749 53.3782 10.0655L62.7489 0H66.4356L55.9886 11.1476Z" fill="black"/>
  <path d="M72.8979 0H87.5937V2.99953H75.8975V10.1946H86.9881V13.0176H75.8975V20.9986H87.8975V23.9981H72.8979V0Z" fill="black"/>
  <path d="M41.999 24H38.9995V0H41.999V24Z" fill="black"/>
  <path d="M24 23.9999H21.0005V21.0004H24V23.9999Z" fill="black"/>
  <path d="M32.9985 23.9999H29.999V21.0004H32.9985V23.9999Z" fill="black"/>
</svg>
